<svg width="96" height="96" xmlns="http://www.w3.org/2000/svg" xmlns:xlink="http://www.w3.org/1999/xlink" xml:space="preserve" overflow="hidden"><g transform="translate(-342 -428)"><path d="M409.017 444.134C409.901 445.861 411.552 446.711 412.841 446.344 414.341 445.913 415.783 444.413 415.2 443.333 414.672 442.327 414.245 441.27 413.926 440.179 413.517 438.66 411.16 438.789 410.147 439.557 408.845 440.693 408.393 442.523 409.017 444.134Z" fill="#C04F15"/><path d="M424.194 463.6C423.234 463.575 421.61 464.821 421.536 465.727 421.476 466.668 422.005 467.548 422.865 467.936 423.629 468.118 424.429 468.069 425.165 467.795 425.933 467.439 426.365 466.609 426.215 465.776 426.015 464.929 425.165 463.633 424.197 463.6Z" fill="#C04F15"/><path d="M410.949 454.138C409.555 453.657 406.649 454.587 406.179 455.782 405.723 457.075 406.132 458.515 407.2 459.375 408.239 459.971 409.421 460.272 410.618 460.247 411.845 460.165 412.843 459.226 413 458.006 413.049 456.769 412.36 454.62 410.951 454.138Z" fill="#C04F15"/><path d="M423.384 478.893C422.098 479.151 420.767 479.061 419.527 478.633 417.809 478.024 416.358 476.832 415.427 475.264 414.638 474.018 414.247 472.562 414.305 471.088 414.323 470.812 414.114 470.575 413.838 470.557 413.732 470.55 413.626 470.577 413.536 470.635 407.871 474.437 400.197 472.928 396.395 467.263 393.826 463.437 393.601 458.499 395.811 454.455 395.944 454.217 395.859 453.916 395.621 453.783 395.616 453.78 395.611 453.777 395.606 453.775 391.642 451.651 389.939 446.864 391.672 442.714 391.77 442.456 391.64 442.167 391.381 442.069 391.325 442.048 391.266 442.037 391.206 442.037L356 442.037 356 510.037 424 510.037 424 479.379C424 479.103 423.776 478.879 423.5 478.879 423.461 478.879 423.422 478.884 423.384 478.893ZM380.75 485.037 364 485.037 364 501.787 360 505.787 360 481.037 384.75 481.037ZM380.875 450.037 364 450.037 364 466.912 360 470.912 360 446.037 384.875 446.037ZM416 485.037 399 485.037 399 502.037 395 506.037 395 481.037 420 481.037Z" fill="#C04F15"/></g></svg>