<svg width="158" height="158" xmlns="http://www.w3.org/2000/svg" xmlns:xlink="http://www.w3.org/1999/xlink" xml:space="preserve" overflow="hidden"><g transform="translate(-561 -185)"><path d="M615.312 235.692C615.312 243.872 608.681 250.504 600.5 250.504 592.319 250.504 585.688 243.872 585.688 235.692 585.688 227.511 592.319 220.879 600.5 220.879 608.681 220.879 615.312 227.511 615.312 235.692Z" stroke="#0E2841" stroke-width="1.6458" fill="#FFFF66"/><path d="M694.312 235.692C694.312 243.872 687.681 250.504 679.5 250.504 671.319 250.504 664.688 243.872 664.688 235.692 664.688 227.511 671.319 220.879 679.5 220.879 687.681 220.879 694.312 227.511 694.312 235.692Z" stroke="#0E2841" stroke-width="1.6458" fill="#FFFF66"/><path d="M669.625 307.121 669.625 292.308C669.625 290.004 668.638 287.7 666.662 286.383 662.713 283.092 657.446 280.788 652.179 279.471 648.558 278.483 644.279 277.496 640 277.496 636.05 277.496 631.771 278.154 627.821 279.471 622.554 280.788 617.617 283.421 613.338 286.383 611.362 288.029 610.375 290.004 610.375 292.308L610.375 307.121 669.625 307.121Z" stroke="#0E2841" stroke-width="1.6458" fill="#FFFF66"/><path d="M654.812 258.733C654.812 266.914 648.181 273.546 640 273.546 631.819 273.546 625.188 266.914 625.188 258.733 625.188 250.553 631.819 243.921 640 243.921 648.181 243.921 654.812 250.553 654.812 258.733Z" stroke="#0E2841" stroke-width="1.6458" fill="#FFFF66"/><path d="M706.162 263.342C702.213 260.05 696.946 257.746 691.679 256.429 688.058 255.442 683.779 254.454 679.5 254.454 675.55 254.454 671.271 255.112 667.321 256.429 665.346 257.087 663.371 257.746 661.396 258.733L661.396 259.062C661.396 264.658 659.092 269.925 655.471 273.546 661.725 275.521 666.662 278.154 670.612 281.117 671.6 282.104 672.588 282.763 673.246 284.079L709.125 284.079 709.125 269.267C709.125 266.962 708.138 264.658 706.162 263.342Z" stroke="#0E2841" stroke-width="1.6458" fill="#FFFF66"/><path d="M609.388 281.117 609.388 281.117C613.996 277.825 619.263 275.192 624.529 273.546 620.908 269.596 618.604 264.658 618.604 259.062 618.604 258.733 618.604 258.733 618.604 258.404 616.629 257.746 614.654 256.758 612.679 256.429 609.058 255.442 604.779 254.454 600.5 254.454 596.55 254.454 592.271 255.112 588.321 256.429 583.054 258.075 578.117 260.379 573.838 263.342 571.862 264.658 570.875 266.962 570.875 269.267L570.875 284.079 606.425 284.079C607.412 282.763 608.071 282.104 609.388 281.117Z" stroke="#0E2841" stroke-width="1.6458" fill="#FFFF66"/></g></svg>