<svg width="144" height="144" xmlns="http://www.w3.org/2000/svg" xmlns:xlink="http://www.w3.org/1999/xlink" xml:space="preserve" overflow="hidden"><g transform="translate(-342 -216)"><path d="M358.5 310.5 358.5 345 393 345 393 310.5ZM369 321 363 321 363 315 369 315Z" fill="#FF0000"/><path d="M397.5 310.5 397.5 345 432 345 432 310.5ZM408 321 402 321 402 315 408 315Z" fill="#FF0000"/><path d="M378 271.5 378 306 412.5 306 412.5 271.5ZM388.5 282 382.5 282 382.5 276 388.5 276Z" fill="#FF0000"/><path d="M417 271.5 417 306 451.5 306 451.5 271.5ZM427.5 282 421.5 282 421.5 276 427.5 276Z" fill="#FF0000"/><path d="M397.5 232.5 397.5 267 432 267 432 232.5ZM408 243 402 243 402 237 408 237Z" fill="#FF0000"/><path d="M436.5 310.5 436.5 345 469.5 345 469.5 310.5ZM447 321 441 321 441 315 447 315Z" fill="#FF0000"/></g></svg>